# xmcd
#
# Track frame offsets:
#	150
#	11205
#	23142
#	34539
#	44379
#	57375
#	69099
#	83798
#	100290
#	121732
#	138827
#	152321
#
# Disc length: 2212 seconds
#
# Revision: 1
# Processed by: cddbd v1.5.1PL0 Copyright (c) Steve Scherf et al.
# Submitted via: EasyCDDAExtractor 6.0.0.1
#
DISCID=8a08a20c
DTITLE=Bobbe Seymour - Priceless
DYEAR=2004
DGENRE=Country
TTITLE0=Heart Over Mind
TTITLE1=Another Bridge To Burn
TTITLE2=Each Time
TTITLE3=Healing Hands Of Time
TTITLE4=I Just Destroyed The World
TTITLE5=Invitation To The Blues
TTITLE6=It's Only Love
TTITLE7=Please Release Me
TTITLE8=Take Me As I Am
TTITLE9=Touch My Heart
TTITLE10=Walk Me To The Door
TTITLE11=Way To Survive
EXTD=
EXTT0=
EXTT1=
EXTT2=
EXTT3=
EXTT4=
EXTT5=
EXTT6=
EXTT7=
EXTT8=
EXTT9=
EXTT10=
EXTT11=
PLAYORDER=
